<?xml version="1.0" encoding="UTF-8" standalone="no"?>
<!-- Created with Inkscape (http://www.inkscape.org/) -->

<svg
   width="48"
   height="48"
   id="svg2856"
   version="1.1"
   xmlns="http://www.w3.org/2000/svg"
   xmlns:svg="http://www.w3.org/2000/svg"
   xmlns:rdf="http://www.w3.org/1999/02/22-rdf-syntax-ns#"
   xmlns:cc="http://creativecommons.org/ns#"
   xmlns:dc="http://purl.org/dc/elements/1.1/">
  <defs
     id="defs2858">
    <filter
       id="filter3864"
       x="-0.047320508"
       y="-0.081961524"
       width="1.094641"
       height="1.163923">
      <feGaussianBlur
         stdDeviation="0.20490381"
         id="feGaussianBlur3866" />
    </filter>
  </defs>
  <metadata
     id="metadata2861">
    <rdf:RDF>
      <cc:Work
         rdf:about="">
        <dc:format>image/svg+xml</dc:format>
        <dc:type
           rdf:resource="http://purl.org/dc/dcmitype/StillImage" />
        <dc:title />
      </cc:Work>
    </rdf:RDF>
  </metadata>
  <g
     id="layer1">
    <path
       style="fill:#e9b96e;fill-opacity:1;stroke:#573a0d;stroke-width:1;stroke-linecap:square;stroke-linejoin:miter;stroke-miterlimit:4;stroke-dasharray:none;stroke-dashoffset:0;stroke-opacity:1"
       d="M 6.1513775e-7,16 3.2110204e-7,28 21.035899,40.145082 l 21,-12.414519 V 16.269437 L 20.78461,4 Z"
       id="path3047"
       transform="translate(3.4641013,6)" />
    <path
       style="fill:#2e3436;fill-opacity:1;stroke:#2e3436;stroke-width:1;stroke-linecap:round;stroke-linejoin:miter;stroke-miterlimit:4;stroke-dasharray:none;stroke-dashoffset:0;stroke-opacity:1"
       d="m 8.5,30.907477 -2,-1.1547 v 6 L 17.320508,42 V 40 L 15.588457,39 V 37 L 13.5,35.794229 v -4 l -5,-2.886752 z"
       id="path3831" />
    <path
       style="opacity:1;fill:#555753;fill-opacity:1;stroke:#2e3436;stroke-linejoin:miter"
       d="M 6.9282032,36 10.392305,34 13.856406,36 15.5,36.948929 v 2 l 2,1.154701 v 2 z"
       id="path3870" />
    <path
       style="fill:#fce94f;fill-opacity:1;stroke:#625802;stroke-width:1;stroke-linecap:round;stroke-linejoin:round;stroke-miterlimit:4;stroke-dasharray:none;stroke-dashoffset:0;stroke-opacity:1"
       d="M 25.980762,19 31.5,22.186533 v 2 L 38.09375,28 41.5625,26 45.5,23.730563 v 2.538874 -4 L 32.908965,15 Z"
       id="path3851" />
    <path
       style="fill:#e9b96e;fill-opacity:1;stroke:#573a0d;stroke-width:1;stroke-linecap:round;stroke-linejoin:round;stroke-miterlimit:4;stroke-dasharray:none;stroke-dashoffset:0.5;stroke-opacity:1"
       d="m 24.839746,18.341234 8.660254,-5 v 2 l -8.660254,5 z"
       id="path5684" />
    <path
       style="fill:#73d216;fill-opacity:1;stroke:#325b09;stroke-width:1;stroke-linecap:square;stroke-linejoin:round;stroke-miterlimit:4;stroke-dasharray:none;stroke-dashoffset:0;stroke-opacity:1"
       d="M 25.980762,5 3.4641016,18 17.5,26.10363 l 14,-7.917097 -6.660254,-3.845299 8.660254,-5 z"
       id="path3821"
       transform="translate(0,4)" />
    <path
       style="fill:#729fcf;fill-opacity:1;stroke:#19314b;stroke-width:1;stroke-linecap:round;stroke-linejoin:miter;stroke-miterlimit:4;stroke-dasharray:none;stroke-dashoffset:0;stroke-opacity:1"
       d="m 17.5,28.10363 v 2 L 19.052559,31 v 2 L 24.5,36.145082 l 12,-7.071797 v -2.14657 l 2,-1.1547 v -1.54403 l -7,-4.041452 z"
       id="path3825"
       transform="translate(0,4)" />
    <g
       id="g5691"
       style="stroke-linejoin:miter">
      <path
         id="path3862"
         d="m 13.856406,20 6.928204,4 -6.928204,4 -6.9282028,-4 z"
         style="opacity:0.25;fill:#2e3436;fill-opacity:1;stroke:none;stroke-width:1;stroke-linecap:round;stroke-linejoin:miter;stroke-miterlimit:4;stroke-dasharray:none;stroke-dashoffset:0;stroke-opacity:1;filter:url(#filter3864)" />
      <g
         id="g3858"
         style="stroke-linejoin:miter">
        <path
           style="fill:#c17d11;fill-opacity:1;stroke:#8f5902;stroke-width:1;stroke-linecap:round;stroke-linejoin:miter;stroke-miterlimit:4;stroke-dasharray:none;stroke-dashoffset:0;stroke-opacity:1"
           d="m 15.588457,21 1.732051,1 1.732051,-1 v -6 l -1.732051,-1 -1.732051,1 z"
           id="path3833"
           transform="translate(-3.4641015,2)" />
        <path
           style="fill:#4e9a06;fill-opacity:1;stroke:#316004;stroke-width:1;stroke-linecap:round;stroke-linejoin:miter;stroke-miterlimit:4;stroke-dasharray:none;stroke-dashoffset:0;stroke-opacity:1"
           d="M 9.9641015,13.752777 17.320508,18 23.964101,14.164319 V 5.8356805 L 17.320508,2 9.9641015,6.2472233 Z"
           id="path3837"
           transform="translate(-3.4641015,2)" />
      </g>
    </g>
    <g
       id="g5686"
       transform="translate(-4.2591582e-7,2)"
       style="stroke-linejoin:miter">
      <path
         transform="translate(24.248712,-2)"
         style="opacity:0.25;fill:#2e3436;fill-opacity:1;stroke:none;stroke-linejoin:miter;filter:url(#filter3864)"
         d="m 13.856406,20 5.196153,3 -5.196153,3 -5.196152,-3 z"
         id="path3868" />
      <path
         style="fill:#4e9a06;fill-opacity:1;stroke:#316004;stroke-width:1;stroke-linecap:round;stroke-linejoin:miter;stroke-miterlimit:4;stroke-dasharray:none;stroke-dashoffset:0;stroke-opacity:1"
         d="M 15.71539,21.073285 17.320508,22 18.71539,21.194664 V 12.805336 L 17.320508,12 15.71539,13.073285 Z"
         id="path3853"
         transform="translate(20.78461)" />
    </g>
    <path
       style="fill:none;fill-opacity:1;stroke:#ef2929;stroke-width:0.5;stroke-linecap:butt;stroke-linejoin:miter;stroke-miterlimit:4;stroke-dasharray:0.5, 0.5;stroke-dashoffset:0.25;stroke-opacity:1"
       d="M 12.124356,33 11.25833,32.5"
       id="path3872" />
    <path
       style="fill:#888a85;stroke:#2e3436;stroke-width:1;stroke-linecap:round;stroke-linejoin:miter;stroke-miterlimit:4;stroke-dasharray:none;stroke-dashoffset:0.5;stroke-opacity:1"
       d="m 45.5,26.730563 -4,2.309401 v 1 l -2,1.1547 v 2 l -2,1.154701 v 4 l 8,-4.618802 z"
       id="path3874" />
  </g>
</svg>
