<svg xmlns="http://www.w3.org/2000/svg" xmlns:xlink="http://www.w3.org/1999/xlink" width="256" height="256" viewBox="0 0 256 256"><defs><path id="e" d="M6 128h244v122H6z"/><path id="d" d="M0 6h250v244H0z"/><path id="c" d="M128 128h75.402v80.67H128z"/><linearGradient id="a"><stop offset="0" style="stop-color:#3465a4;stop-opacity:1"/><stop offset="1" style="stop-color:#fff;stop-opacity:1"/></linearGradient><linearGradient xlink:href="#a" id="b" x1="128" x2="128" y1="6" y2="250" gradientUnits="userSpaceOnUse" spreadMethod="pad"/></defs><circle cx="128" cy="128" r="122" style="opacity:1;mix-blend-mode:normal;fill:url(#b);fill-opacity:1;stroke:#3465a4;stroke-width:11;stroke-miterlimit:4;stroke-dasharray:none;stroke-opacity:1"/><path d="M50.969 101.472h9.57l17.852 58.32h-8.164l-4.297-15.195H45.5l-4.219 15.195h-8.164zm13.086 36.797-8.32-29.844-8.32 29.844zm24.882-36.797h34.336v6.64H96.867v17.969h23.945v6.64H96.868v27.07h-7.93Zm68.047 59.453q-5.468 0-9.882-1.953-4.375-1.953-7.5-5.977-6.172-8.008-6.172-22.266 0-9.53 2.812-16.289 2.813-6.796 8.086-10.39 5.313-3.633 12.656-3.633 3.79 0 6.797.742 3.047.742 6.133 2.461v8.086q-2.852-2.383-6.21-3.633-3.4-1.25-6.759-1.25-7.617 0-11.445 5.938t-3.828 17.93q0 23.828 15.351 23.828 3.36 0 6.758-1.25 3.281-1.25 6.133-3.633v8.086q-3.086 1.601-6.172 2.422-3.125.78-6.758.78m22.54-59.453h10.546l10.078 29.687 10.157-29.687h10.586v58.32h-7.305v-51.523l-10.39 30.742h-5.977l-10.43-30.742v51.523h-7.266z" aria-label="AFCM" style="font-size:80px;line-height:3.25;font-family:&quot;Hack Nerd Font&quot;;-inkscape-font-specification:&quot;Hack Nerd Font&quot;;text-align:center;letter-spacing:0;word-spacing:0;text-anchor:middle;white-space:pre;fill:#3465a4"/><path d="M138.537 182.263q1.504 0 1.504 1.504v13.555q0 1.504-1.504 1.504h-8.027q.742 1.738 3.515 3.007h-12.05q2.773-1.27 3.515-3.007h-8.027q-1.504 0-1.504-1.504v-13.555q0-1.504 1.504-1.504zm0 13.555v-12.05h-21.074v12.05z" aria-label="" style="font-size:40px;line-height:3.3;text-align:center;text-anchor:middle;white-space:pre;fill:#3465a4"/></svg>