<svg xmlns="http://www.w3.org/2000/svg" xmlns:svg="http://www.w3.org/2000/svg" id="Layer_1" width="760" height="760" data-name="Layer 1" version="1.1" viewBox="0 0 760 760"><defs id="defs1"><style id="style1">.cls-1{fill:#1d63ed;stroke-width:0}</style></defs><path id="path1" d="m 743.96,314.20224 c -18.54,-12.48 -67.26,-17.81 -102.68,-8.27 -1.91,-35.28 -20.1,-65.01 -53.38,-90.95 l -12.32,-8.27 -8.21,12.4 c -16.14,24.5 -22.94,57.14 -20.53,86.81 1.9,18.28 8.26,38.83 20.53,53.74 -46.1,26.74 -88.59,20.67 -276.77,20.67 H 0.06 c -0.85,42.49 5.98,124.23 57.96,190.77 5.74,7.35 12.04,14.46 18.87,21.31 42.26,42.32 106.11,73.35 201.59,73.44 145.66,0.13 270.46,-78.6 346.37,-268.97 24.98,0.41 90.92,4.48 123.19,-57.88 0.79,-1.05 8.21,-16.54 8.21,-16.54 l -12.3,-8.27 z m -554.29,-38.86 h -81.7 v 81.7 h 81.7 z m 105.55,0 h -81.7 v 81.7 h 81.7 z m 105.55,0 h -81.7 v 81.7 h 81.7 z m 105.55,0 h -81.7 v 81.7 h 81.7 z m -422.2,0 H 2.42 v 81.7 h 81.7 z m 105.55,-103.19 h -81.7 v 81.7 h 81.7 z m 105.55,0 h -81.7 v 81.7 h 81.7 z m 105.55,0 h -81.7 v 81.7 h 81.7 z m 0,-103.199996 h -81.7 v 81.699996 h 81.7 z" class="cls-1"/></svg>