<svg xmlns="http://www.w3.org/2000/svg" xmlns:svg="http://www.w3.org/2000/svg" id="svg5" width="240" height="240" version="1.1" viewBox="0 0 240 240"><path id="path4" fill="#ffd200" d="M 225.63,101.00563 V 66.375625 c 0,-4.544 -2.425,-8.744 -6.361,-11.016 l -92.906,-53.64 a 12.722,12.722 0 0 0 -12.721,0 l -20.903,12.068 V 173.22863 c 0,4.332 1.402,7.87 4.206,10.615 2.803,2.761 6.396,4.133 10.8,4.133 H 36.951 c 4.408,0 8.001,-1.372 10.8,-4.133 2.804,-2.745 4.206,-6.283 4.206,-10.615 V 37.333625 l -31.222,18.026 a 12.722,12.722 0 0 0 -6.36,11.016 V 173.65363 c 0,4.545 2.425,8.745 6.36,11.017 l 92.907,53.64 a 12.722,12.722 0 0 0 12.721,0 l 92.906,-53.64 a 12.722,12.722 0 0 0 6.36,-11.017 v -20.047 c -15.809,17.415 -38.179,30.75 -65.072,33.972 -1.273,0.184 -2.062,0.208 -2.27,0.21 -20.93,1.47 -38.785,-10.013 -38.785,-45.525 V 91.061625 c 0,-5.81 -0.895,-10.13 -2.694,-12.95 -1.794,-2.82 -4.062,-4.619 -6.794,-5.387 -2.74,-0.769 -4.762,-1.368 -8.17,-0.57 -3.107,0.73 -4.374,1.608 -6.937,3.145 6.612,-4.703 12.498,-8.258 20.385,-10.141 7.883,-1.88 15.17,-2.137 21.854,-0.769 6.684,1.368 12.21,4.62 16.58,9.75 4.367,5.125 6.558,12.653 6.558,22.567 v 46.562005 c 0,21.507 17.478,32.999 35.245,30.167 15.807,-11.225 28.756,-38.209 30.1,-72.43 z"/><path id="path5" fill="#3d1152" d="M 160.284,143.26863 V 96.706625 c 0,-9.914 -2.191,-17.442 -6.557,-22.568 -4.37,-5.13 -9.897,-8.38 -16.58,-9.749 -6.685,-1.368 -13.972,-1.11 -21.855,0.769 -7.887,1.883 -13.773,5.438 -20.385,10.141 2.563,-1.537 3.83,-2.415 6.938,-3.145 3.407,-0.798 5.43,-0.199 8.17,0.57 2.73,0.768 4.999,2.567 6.793,5.387 1.799,2.82 2.694,7.14 2.694,12.95 v 51.203005 c 0,35.512 17.854,46.994 38.785,45.526 h -0.061 c 0.245,-0.025 0.486,-0.043 0.728,-0.063 0.566,-0.063 1.126,-0.128 1.69,-0.197 0.646,-0.094 1.429,-0.208 2.326,-0.352 6.524,-1.213 18.933,-4.509 31.829,-13.224 0.244,-0.165 0.486,-0.346 0.73,-0.519 -17.767,2.832 -35.245,-8.66 -35.245,-30.167 z"/></svg>