<svg xmlns="http://www.w3.org/2000/svg" width="240" height="240" viewBox="0 0 240 240"><path fill="#ffd200" d="M225.63 101.006v-34.63a12.72 12.72 0 0 0-6.361-11.016L126.363 1.72a12.72 12.72 0 0 0-12.721 0L92.739 13.788v159.44q0 6.498 4.206 10.616c2.803 2.76 6.396 4.133 10.8 4.133H36.951c4.408 0 8.001-1.372 10.8-4.133q4.206-4.117 4.206-10.615V37.334L20.735 55.36a12.72 12.72 0 0 0-6.36 11.016v107.278c0 4.545 2.425 8.745 6.36 11.017l92.907 53.64a12.72 12.72 0 0 0 12.721 0l92.906-53.64a12.72 12.72 0 0 0 6.36-11.017v-20.047c-15.809 17.415-38.179 30.75-65.072 33.972-1.273.184-2.062.208-2.27.21-20.93 1.47-38.785-10.013-38.785-45.525V91.062c0-5.81-.895-10.13-2.694-12.95-1.794-2.82-4.062-4.62-6.794-5.387-2.74-.77-4.762-1.368-8.17-.57-3.107.73-4.374 1.608-6.937 3.145 6.612-4.703 12.498-8.258 20.385-10.141q11.826-2.82 21.854-.77 10.026 2.054 16.58 9.75c4.367 5.126 6.558 12.654 6.558 22.568v46.562c0 21.507 17.478 32.999 35.245 30.167 15.807-11.225 28.756-38.21 30.1-72.43z"/><path fill="#3d1152" d="M160.284 143.269V96.707c0-9.914-2.191-17.442-6.557-22.568q-6.555-7.695-16.58-9.75-10.029-2.05-21.855.77c-7.887 1.883-13.773 5.438-20.385 10.14 2.563-1.536 3.83-2.414 6.938-3.144 3.407-.798 5.43-.2 8.17.57 2.73.768 4.999 2.567 6.793 5.387 1.799 2.82 2.694 7.14 2.694 12.95v51.203c0 35.512 17.854 46.994 38.785 45.526h-.061c.245-.025.486-.043.728-.063.566-.063 1.126-.128 1.69-.197.646-.094 1.429-.208 2.326-.352 6.524-1.213 18.933-4.51 31.829-13.224.244-.165.486-.346.73-.52-17.767 2.833-35.245-8.66-35.245-30.166"/></svg>