<svg xmlns="http://www.w3.org/2000/svg" width="48" height="48"><defs><filter id="a" width="1.095" height="1.164" x="-.047" y="-.082"><feGaussianBlur stdDeviation=".205"/></filter></defs><path d="M0 16v12l21.036 12.145 21-12.414V16.269L20.785 4Z" style="fill:#e9b96e;fill-opacity:1;stroke:#573a0d;stroke-width:1;stroke-linecap:square;stroke-linejoin:miter;stroke-miterlimit:4;stroke-dasharray:none;stroke-dashoffset:0;stroke-opacity:1" transform="translate(3.464 6)"/><path d="m8.5 30.907-2-1.154v6L17.32 42v-2l-1.732-1v-2L13.5 35.794v-4l-5-2.887z" style="fill:#2e3436;fill-opacity:1;stroke:#2e3436;stroke-width:1;stroke-linecap:round;stroke-linejoin:miter;stroke-miterlimit:4;stroke-dasharray:none;stroke-dashoffset:0;stroke-opacity:1"/><path d="m6.928 36 3.464-2 3.464 2 1.644.949v2l2 1.155v2z" style="opacity:1;fill:#555753;fill-opacity:1;stroke:#2e3436;stroke-linejoin:miter"/><path d="m25.98 19 5.52 3.187v2L38.094 28l3.468-2 3.938-2.27v2.54-4L32.909 15Z" style="fill:#fce94f;fill-opacity:1;stroke:#625802;stroke-width:1;stroke-linecap:round;stroke-linejoin:round;stroke-miterlimit:4;stroke-dasharray:none;stroke-dashoffset:0;stroke-opacity:1"/><path d="m24.84 18.341 8.66-5v2l-8.66 5z" style="fill:#e9b96e;fill-opacity:1;stroke:#573a0d;stroke-width:1;stroke-linecap:round;stroke-linejoin:round;stroke-miterlimit:4;stroke-dasharray:none;stroke-dashoffset:.5;stroke-opacity:1"/><path d="M25.98 5 3.465 18 17.5 26.104l14-7.917-6.66-3.846 8.66-5z" style="fill:#73d216;fill-opacity:1;stroke:#325b09;stroke-width:1;stroke-linecap:square;stroke-linejoin:round;stroke-miterlimit:4;stroke-dasharray:none;stroke-dashoffset:0;stroke-opacity:1" transform="translate(0 4)"/><path d="M17.5 28.104v2l1.553.896v2l5.447 3.145 12-7.072v-2.146l2-1.155v-1.544l-7-4.041z" style="fill:#729fcf;fill-opacity:1;stroke:#19314b;stroke-width:1;stroke-linecap:round;stroke-linejoin:miter;stroke-miterlimit:4;stroke-dasharray:none;stroke-dashoffset:0;stroke-opacity:1" transform="translate(0 4)"/><g style="stroke-linejoin:miter"><path d="m13.856 20 6.929 4-6.929 4-6.928-4z" style="opacity:.25;fill:#2e3436;fill-opacity:1;stroke:none;stroke-width:1;stroke-linecap:round;stroke-linejoin:miter;stroke-miterlimit:4;stroke-dasharray:none;stroke-dashoffset:0;stroke-opacity:1;filter:url(#a)"/><g style="stroke-linejoin:miter"><path d="m15.588 21 1.733 1 1.732-1v-6l-1.732-1-1.733 1z" style="fill:#c17d11;fill-opacity:1;stroke:#8f5902;stroke-width:1;stroke-linecap:round;stroke-linejoin:miter;stroke-miterlimit:4;stroke-dasharray:none;stroke-dashoffset:0;stroke-opacity:1" transform="translate(-3.464 2)"/><path d="M9.964 13.753 17.321 18l6.643-3.836V5.836L17.321 2 9.964 6.247Z" style="fill:#4e9a06;fill-opacity:1;stroke:#316004;stroke-width:1;stroke-linecap:round;stroke-linejoin:miter;stroke-miterlimit:4;stroke-dasharray:none;stroke-dashoffset:0;stroke-opacity:1" transform="translate(-3.464 2)"/></g></g><g style="stroke-linejoin:miter"><path d="m13.856 20 5.197 3-5.197 3-5.196-3z" style="opacity:.25;fill:#2e3436;fill-opacity:1;stroke:none;stroke-linejoin:miter;filter:url(#a)" transform="translate(24.249)"/><path d="m15.715 21.073 1.606.927 1.394-.805v-8.39L17.321 12l-1.606 1.073Z" style="fill:#4e9a06;fill-opacity:1;stroke:#316004;stroke-width:1;stroke-linecap:round;stroke-linejoin:miter;stroke-miterlimit:4;stroke-dasharray:none;stroke-dashoffset:0;stroke-opacity:1" transform="translate(20.785 2)"/></g><path d="m12.124 33-.866-.5" style="fill:none;fill-opacity:1;stroke:#ef2929;stroke-width:.5;stroke-linecap:butt;stroke-linejoin:miter;stroke-miterlimit:4;stroke-dasharray:.5,.5;stroke-dashoffset:.25;stroke-opacity:1"/><path d="m45.5 26.73-4 2.31v1l-2 1.155v2l-2 1.154v4l8-4.618z" style="fill:#888a85;stroke:#2e3436;stroke-width:1;stroke-linecap:round;stroke-linejoin:miter;stroke-miterlimit:4;stroke-dasharray:none;stroke-dashoffset:.5;stroke-opacity:1"/></svg>