<svg xmlns="http://www.w3.org/2000/svg" xmlns:xlink="http://www.w3.org/1999/xlink" width="1024" height="1024" viewBox="0 0 270.933 270.933"><defs><linearGradient xlink:href="#a" id="b" x1="460.702" x2="521.851" y1="533.831" y2="595.225" gradientTransform="matrix(2.94247 0 0 2.94283 -1301.115 -1530.595)" gradientUnits="userSpaceOnUse"/><linearGradient id="a"><stop offset="0" stop-color="#ff1300"/><stop offset="1" stop-color="#ff6e01"/></linearGradient></defs><path fill="url(#b)" d="M103.595 12.965 97.54 32.089q-9.893 4.277-19.783 8.557c-6.996-1.474-14.01-3.18-21.1-4.035-1.12 1.26-29.437 44.806-29.43 45.256 1.305 3.194 3.546 5.942 5.24 8.932l102.999 36.175L238.465 90.8c1.694-2.99 3.935-5.738 5.24-8.932.005-.45-28.31-43.997-29.43-45.256-7.09.855-14.103 2.561-21.1 4.035q-9.89-4.28-19.782-8.557l-6.054-19.124Zm-63.282 90.99c-.128-.039-.385.152-.394.216-1.24 10.115-3.665 30.351-3.665 30.351l6.276 27.128 47.48 21.569 45.456-16.997 45.458 16.997 47.48-21.569 6.275-27.128s-2.424-20.236-3.665-30.35c-.011-.087-.465-.4-.465-.084-31.082 11.048-63.504 21.747-95.083 32.644-31.579-10.897-64.001-21.596-95.083-32.644 0-.079-.028-.118-.07-.132zm23.878 24.18c14.913 5.143 29.947 10.25 44.981 15.358a24.207 24.2 0 0 1-1.137 4.625 24.207 24.2 0 0 1-31.093 14.32 24.207 24.2 0 0 1-14.323-31.085 24.207 24.2 0 0 1 1.572-3.219m142.55 0a24.207 24.2 0 0 1 1.574 3.218 24.207 24.2 0 0 1-14.324 31.084 24.207 24.2 0 0 1-31.092-14.319 24.207 24.2 0 0 1-1.138-4.625c15.034-5.107 30.069-10.215 44.98-15.359m-178.7 17.168-11.402 11.295 17.081 59.878 53.985 22.138-2.904-46.58-51.197-23.818Zm214.851 0-5.563 22.913-51.196 23.819-2.905 46.58 53.985-22.139 17.081-59.878zm-107.425 30.842-40.483 16.018 2.457 50.318 38.026 15.488 38.025-15.488 2.457-50.318z" paint-order="stroke fill markers" style="font-variation-settings:normal;-inkscape-stroke:none"/></svg>