<svg xmlns="http://www.w3.org/2000/svg" xmlns:xlink="http://www.w3.org/1999/xlink" width="1024" height="1024" viewBox="0 0 270.933 270.933"><defs><linearGradient xlink:href="#a" id="b" x1="460.702" x2="521.851" y1="533.831" y2="595.225" gradientTransform="matrix(2.94247 0 0 2.94283 -1301.115 -1530.595)" gradientUnits="userSpaceOnUse"/><linearGradient id="a"><stop offset="0" stop-color="#ff1300"/><stop offset="1" stop-color="#ff6e01"/></linearGradient></defs><path fill="url(#b)" d="m 103.59472,12.964585 -6.054091,19.124497 c -6.594398,2.851593 -13.188892,5.703138 -19.78244,8.556631 -6.99637,-1.473275 -14.010477,-3.179879 -21.100175,-4.034907 -1.119205,1.259362 -29.437219,44.80637 -29.429219,45.256309 1.304685,3.194363 3.545215,5.942231 5.239847,8.931531 L 135.46667,126.97424 238.46468,90.798646 c 1.69469,-2.9893 3.93516,-5.737154 5.23985,-8.931531 0.005,-0.449877 -28.31001,-43.996947 -29.42921,-45.256309 -7.0897,0.855028 -14.10374,2.561632 -21.10016,4.034907 -6.59361,-2.853493 -13.18811,-5.705038 -19.78251,-8.556631 L 167.33862,12.964585 Z M 40.312844,103.95567 c -0.127574,-0.0392 -0.384409,0.15108 -0.393925,0.21542 -1.240617,10.11474 -3.665187,30.35109 -3.665187,30.35109 l 6.275793,27.12808 47.479538,21.56868 45.457327,-16.99727 45.45739,16.99727 47.47953,-21.56868 6.27579,-27.12808 c 0,0 -2.42456,-20.23635 -3.66518,-30.35109 -0.0112,-0.0862 -0.46444,-0.3984 -0.46444,-0.0828 -31.08198,11.04766 -63.50419,21.74701 -95.08338,32.64405 -31.57908,-10.89704 -64.00128,-21.59639 -95.083376,-32.64405 0,-0.0789 -0.02799,-0.11862 -0.0705,-0.13261 z m 23.878577,24.17856 c 14.912407,5.14353 29.946956,10.25149 44.980829,15.35882 a 24.206922,24.200225 0 0 1 -1.1375,4.62523 24.206922,24.200225 0 0 1 -31.092892,14.31905 24.206922,24.200225 0 0 1 -14.322977,-31.08434 24.206922,24.200225 0 0 1 1.57254,-3.21876 z m 142.550479,0 a 24.206922,24.200225 0 0 1 1.57261,3.21876 24.206922,24.200225 0 0 1 -14.32309,31.08432 24.206922,24.200225 0 0 1 -31.0929,-14.31903 24.206922,24.200225 0 0 1 -1.13744,-4.62524 c 15.03387,-5.10733 30.06848,-10.21529 44.98082,-15.35881 z M 28.041031,145.3034 16.639373,156.59833 33.720065,216.4761 87.705357,238.61434 84.800544,192.0345 33.604011,168.21639 Z m 214.851319,0 -5.56309,22.91299 -51.19647,23.81811 -2.90482,46.57984 53.9853,-22.13824 17.08068,-59.87777 z m -107.42568,30.84199 -40.482706,16.01752 2.457235,50.31854 38.025471,15.48729 38.02546,-15.48729 2.4573,-50.31855 z" paint-order="stroke fill markers" style="font-variation-settings:normal;-inkscape-stroke:none"/></svg>
