<svg xmlns="http://www.w3.org/2000/svg" xmlns:svg="http://www.w3.org/2000/svg" id="svg6" width="109" height="113" fill="none" version="1.1" viewBox="0 0 109 113"><path id="path1" fill="url(#paint0_linear)" d="m 63.7076,110.284 c -2.8595,3.601 -8.6574,1.628 -8.7263,-2.97 L 53.9738,40.0627 h 45.2197 c 8.1905,0 12.7585,9.4601 7.6655,15.8747 z" style="fill:url(#paint0_linear)"/><path id="path2" fill="url(#paint1_linear)" fill-opacity=".2" d="m 63.7076,110.284 c -2.8595,3.601 -8.6574,1.628 -8.7263,-2.97 L 53.9738,40.0627 h 45.2197 c 8.1905,0 12.7585,9.4601 7.6655,15.8747 z" style="fill:url(#paint1_linear)"/><path id="path3" fill="#3ecf8e" d="m 45.317,2.07103 c 2.8595,-3.6014 8.6575,-1.628093 8.7264,2.96997 l 0.4415,67.2512 H 9.83113 c -8.19075,0 -12.75888,-9.4601 -7.66563,-15.8747 z"/><defs id="defs6"><linearGradient id="paint0_linear" x1="53.974" x2="94.163" y1="54.974" y2="71.829" gradientUnits="userSpaceOnUse"><stop id="stop3" stop-color="#249361"/><stop id="stop4" offset="1" stop-color="#3ECF8E"/></linearGradient><linearGradient id="paint1_linear" x1="36.156" x2="54.484" y1="30.578" y2="65.081" gradientUnits="userSpaceOnUse"><stop id="stop5"/><stop id="stop6" offset="1" stop-opacity="0"/></linearGradient></defs></svg>