<svg xmlns="http://www.w3.org/2000/svg" xml:space="preserve" viewBox="0 0 1280 1280"><path d="M640 1280c353.46 0 640-286.54 640-640S993.46 0 640 0 0 286.54 0 640s286.54 640 640 640m163.7-284.19c156.5-73.92 205.56-210.43 216.6-263.61-57.22 58.6-120.53 118-163.11 76.88 0 0-2.33-219.45-2.33-309.43 0-121 114.75-211.18 114.75-211.18-63.11 11.24-138.89 33.71-219.33 112.65-7.26 7.2-14.14 14.76-20.62 22.67-34.47-26.39-79.14-18.48-79.14-18.48 24.14 13.26 48.23 51.88 48.23 83.85v314.26s-52.63 46.3-93.19 46.3c-9.14.07-18.17-2.05-26.33-6.18a57.2 57.2 0 0 1-20.56-17.56 61.6 61.6 0 0 1-7.91-13.65V424.07c-11.99 9.89-52.51 18.04-52.51-49.22 0-41.79 30.11-91.6 83.73-122.15a395.17 395.17 0 0 0-198.92 91.76 389.46 389.46 0 0 0-100.31 134.4 389.55 389.55 0 0 0-34.51 164.12s39.21-122.51 88.32-133.83a47.5 47.5 0 0 1 41.7 8.8 47.4 47.4 0 0 1 13.51 17.23c3.1 6.72 4.59 14.07 4.34 21.46V844.3c0 29.16-18.8 35.53-36.17 35.22-11.77-.83-23.4-3.02-34.66-6.53a391.4 391.4 0 0 0 136.15 115.66 391.4 391.4 0 0 0 173.37 43.1l106.05-106.6z" style="fill-rule:evenodd;clip-rule:evenodd"/></svg>